<svg width="32" height="32" viewBox="0 0 32 32" fill="none" xmlns="http://www.w3.org/2000/svg">
  <rect width="32" height="32" rx="6" fill="#000000"/>

  <!-- Phone Icon -->
  <path d="M20.5 21.5C20.5 21.5 19.5 20.5 17 18C14.5 15.5 13.5 14.5 13.5 14.5C13.5 14.5 14 13.5 14 12.5C14 11.5 13 10.5 12 10.5C11 10.5 9.5 11 9.5 12.5C9.5 14 10 15.5 11.5 17.5C13 19.5 15.5 21.5 18 22.5C20.5 23.5 22 23 22.5 22C23 21 22 20 21 20C20 20 20.5 21.5 20.5 21.5Z" fill="white" stroke="white" stroke-width="1.5" stroke-linecap="round" stroke-linejoin="round"/>

  <!-- AI Spark/Star elements -->
  <circle cx="23" cy="10" r="1.5" fill="#10B981"/>
  <circle cx="20" cy="8" r="1" fill="#10B981"/>
  <circle cx="25" cy="13" r="1" fill="#10B981"/>

  <!-- Small signal waves -->
  <path d="M16 9C17.5 9.5 18.5 10.5 19 12" stroke="#10B981" stroke-width="1.5" stroke-linecap="round" fill="none"/>
  <path d="M17 10.5C17.8 11 18.2 11.5 18.5 12.5" stroke="#10B981" stroke-width="1.2" stroke-linecap="round" fill="none"/>
</svg>
